<mxfile host="app.diagrams.net" modified="2024-04-30T09:25:59.596Z" agent="Mozilla/5.0 (Windows NT 10.0; Win64; x64) AppleWebKit/537.36 (KHTML, like Gecko) Chrome/124.0.0.0 Safari/537.36" etag="oI2LuCtp6gQRBhkOFWhA" version="24.3.0" type="github">
  <diagram name="task1" id="zDjTS899pgeco_TXHuRO">
    <mxGraphModel dx="2100" dy="2144" grid="1" gridSize="10" guides="1" tooltips="1" connect="1" arrows="1" fold="1" page="1" pageScale="1" pageWidth="850" pageHeight="1100" math="0" shadow="0">
      <root>
        <mxCell id="0" />
        <mxCell id="1" parent="0" />
        <mxCell id="hwUipfqgp1SF-haNEHzJ-26" value="" style="edgeStyle=orthogonalEdgeStyle;rounded=0;orthogonalLoop=1;jettySize=auto;html=1;exitX=1;exitY=0.5;exitDx=0;exitDy=0;exitPerimeter=0;entryX=0;entryY=0.5;entryDx=0;entryDy=0;" edge="1" parent="1" source="hwUipfqgp1SF-haNEHzJ-1" target="hwUipfqgp1SF-haNEHzJ-13">
          <mxGeometry relative="1" as="geometry" />
        </mxCell>
        <mxCell id="hwUipfqgp1SF-haNEHzJ-57" value="&lt;b&gt;&lt;font style=&quot;font-size: 18px;&quot;&gt;Yes&lt;/font&gt;&lt;/b&gt;" style="edgeLabel;html=1;align=center;verticalAlign=middle;resizable=0;points=[];" vertex="1" connectable="0" parent="hwUipfqgp1SF-haNEHzJ-26">
          <mxGeometry x="-0.2078" y="2" relative="1" as="geometry">
            <mxPoint x="10" y="-14" as="offset" />
          </mxGeometry>
        </mxCell>
        <mxCell id="hwUipfqgp1SF-haNEHzJ-39" value="" style="rounded=0;orthogonalLoop=1;jettySize=auto;html=1;entryX=0.5;entryY=0;entryDx=0;entryDy=0;entryPerimeter=0;exitX=0.5;exitY=1;exitDx=0;exitDy=0;exitPerimeter=0;" edge="1" parent="1" source="hwUipfqgp1SF-haNEHzJ-1" target="hwUipfqgp1SF-haNEHzJ-2">
          <mxGeometry relative="1" as="geometry" />
        </mxCell>
        <mxCell id="hwUipfqgp1SF-haNEHzJ-1" value="&lt;b&gt;&lt;font style=&quot;font-size: 18px;&quot;&gt;&amp;nbsp;Only SW0 toggles on&lt;/font&gt;&lt;/b&gt;" style="strokeWidth=2;html=1;shape=mxgraph.flowchart.decision;whiteSpace=wrap;" vertex="1" parent="1">
          <mxGeometry x="190" y="56" width="160" height="100" as="geometry" />
        </mxCell>
        <mxCell id="hwUipfqgp1SF-haNEHzJ-27" value="" style="edgeStyle=orthogonalEdgeStyle;rounded=0;orthogonalLoop=1;jettySize=auto;html=1;exitX=1;exitY=0.5;exitDx=0;exitDy=0;exitPerimeter=0;entryX=0;entryY=0.5;entryDx=0;entryDy=0;" edge="1" parent="1" source="hwUipfqgp1SF-haNEHzJ-2" target="hwUipfqgp1SF-haNEHzJ-14">
          <mxGeometry relative="1" as="geometry" />
        </mxCell>
        <mxCell id="hwUipfqgp1SF-haNEHzJ-41" value="" style="rounded=0;orthogonalLoop=1;jettySize=auto;html=1;entryX=0.5;entryY=0;entryDx=0;entryDy=0;entryPerimeter=0;exitX=0.5;exitY=1;exitDx=0;exitDy=0;exitPerimeter=0;" edge="1" parent="1" source="hwUipfqgp1SF-haNEHzJ-2" target="hwUipfqgp1SF-haNEHzJ-3">
          <mxGeometry relative="1" as="geometry" />
        </mxCell>
        <mxCell id="hwUipfqgp1SF-haNEHzJ-2" value="&lt;b&gt;&lt;font style=&quot;font-size: 18px;&quot;&gt;&amp;nbsp;Only SW1 toggles on&lt;/font&gt;&lt;/b&gt;" style="strokeWidth=2;html=1;shape=mxgraph.flowchart.decision;whiteSpace=wrap;" vertex="1" parent="1">
          <mxGeometry x="190" y="186" width="160" height="100" as="geometry" />
        </mxCell>
        <mxCell id="hwUipfqgp1SF-haNEHzJ-28" value="" style="edgeStyle=orthogonalEdgeStyle;rounded=0;orthogonalLoop=1;jettySize=auto;html=1;exitX=1;exitY=0.5;exitDx=0;exitDy=0;exitPerimeter=0;entryX=0;entryY=0.5;entryDx=0;entryDy=0;" edge="1" parent="1" source="hwUipfqgp1SF-haNEHzJ-3" target="hwUipfqgp1SF-haNEHzJ-15">
          <mxGeometry relative="1" as="geometry" />
        </mxCell>
        <mxCell id="hwUipfqgp1SF-haNEHzJ-42" value="" style="rounded=0;orthogonalLoop=1;jettySize=auto;html=1;exitX=0.5;exitY=1;exitDx=0;exitDy=0;exitPerimeter=0;entryX=0.5;entryY=0;entryDx=0;entryDy=0;entryPerimeter=0;" edge="1" parent="1" source="hwUipfqgp1SF-haNEHzJ-3" target="hwUipfqgp1SF-haNEHzJ-4">
          <mxGeometry relative="1" as="geometry">
            <mxPoint x="300" y="430" as="sourcePoint" />
          </mxGeometry>
        </mxCell>
        <mxCell id="hwUipfqgp1SF-haNEHzJ-3" value="&lt;b&gt;&lt;font style=&quot;font-size: 18px;&quot;&gt;&amp;nbsp;Only SW2 toggles on&lt;/font&gt;&lt;/b&gt;" style="strokeWidth=2;html=1;shape=mxgraph.flowchart.decision;whiteSpace=wrap;" vertex="1" parent="1">
          <mxGeometry x="190" y="316" width="160" height="100" as="geometry" />
        </mxCell>
        <mxCell id="hwUipfqgp1SF-haNEHzJ-29" value="" style="edgeStyle=orthogonalEdgeStyle;rounded=0;orthogonalLoop=1;jettySize=auto;html=1;exitX=1;exitY=0.5;exitDx=0;exitDy=0;exitPerimeter=0;entryX=0;entryY=0.5;entryDx=0;entryDy=0;" edge="1" parent="1" source="hwUipfqgp1SF-haNEHzJ-4" target="hwUipfqgp1SF-haNEHzJ-16">
          <mxGeometry relative="1" as="geometry" />
        </mxCell>
        <mxCell id="hwUipfqgp1SF-haNEHzJ-43" value="" style="edgeStyle=orthogonalEdgeStyle;rounded=0;orthogonalLoop=1;jettySize=auto;html=1;entryX=0.5;entryY=0;entryDx=0;entryDy=0;entryPerimeter=0;exitX=0.5;exitY=1;exitDx=0;exitDy=0;exitPerimeter=0;" edge="1" parent="1" source="hwUipfqgp1SF-haNEHzJ-4" target="hwUipfqgp1SF-haNEHzJ-5">
          <mxGeometry relative="1" as="geometry" />
        </mxCell>
        <mxCell id="hwUipfqgp1SF-haNEHzJ-4" value="&lt;b&gt;&lt;font style=&quot;font-size: 18px;&quot;&gt;&amp;nbsp;Only SW3 toggles on&lt;/font&gt;&lt;/b&gt;" style="strokeWidth=2;html=1;shape=mxgraph.flowchart.decision;whiteSpace=wrap;" vertex="1" parent="1">
          <mxGeometry x="190" y="446" width="160" height="100" as="geometry" />
        </mxCell>
        <mxCell id="hwUipfqgp1SF-haNEHzJ-30" value="" style="edgeStyle=orthogonalEdgeStyle;rounded=0;orthogonalLoop=1;jettySize=auto;html=1;exitX=1;exitY=0.5;exitDx=0;exitDy=0;exitPerimeter=0;entryX=0;entryY=0.5;entryDx=0;entryDy=0;" edge="1" parent="1" source="hwUipfqgp1SF-haNEHzJ-5" target="hwUipfqgp1SF-haNEHzJ-17">
          <mxGeometry relative="1" as="geometry" />
        </mxCell>
        <mxCell id="hwUipfqgp1SF-haNEHzJ-44" value="" style="rounded=0;orthogonalLoop=1;jettySize=auto;html=1;exitX=0.5;exitY=1;exitDx=0;exitDy=0;exitPerimeter=0;entryX=0.5;entryY=0;entryDx=0;entryDy=0;entryPerimeter=0;" edge="1" parent="1" source="hwUipfqgp1SF-haNEHzJ-5" target="hwUipfqgp1SF-haNEHzJ-6">
          <mxGeometry relative="1" as="geometry">
            <mxPoint x="310" y="710" as="targetPoint" />
          </mxGeometry>
        </mxCell>
        <mxCell id="hwUipfqgp1SF-haNEHzJ-49" value="&lt;b style=&quot;font-size: 18px;&quot;&gt;No&lt;/b&gt;" style="edgeLabel;html=1;align=center;verticalAlign=middle;resizable=0;points=[];" vertex="1" connectable="0" parent="hwUipfqgp1SF-haNEHzJ-44">
          <mxGeometry x="-0.1541" y="3" relative="1" as="geometry">
            <mxPoint x="17" y="3" as="offset" />
          </mxGeometry>
        </mxCell>
        <mxCell id="hwUipfqgp1SF-haNEHzJ-5" value="&lt;b&gt;&lt;font style=&quot;font-size: 18px;&quot;&gt;&amp;nbsp;Only SW4 toggles on&lt;/font&gt;&lt;/b&gt;" style="strokeWidth=2;html=1;shape=mxgraph.flowchart.decision;whiteSpace=wrap;" vertex="1" parent="1">
          <mxGeometry x="190" y="583" width="160" height="100" as="geometry" />
        </mxCell>
        <mxCell id="hwUipfqgp1SF-haNEHzJ-32" value="" style="edgeStyle=orthogonalEdgeStyle;rounded=0;orthogonalLoop=1;jettySize=auto;html=1;exitX=1;exitY=0.5;exitDx=0;exitDy=0;exitPerimeter=0;entryX=0;entryY=0.5;entryDx=0;entryDy=0;" edge="1" parent="1" source="hwUipfqgp1SF-haNEHzJ-6" target="hwUipfqgp1SF-haNEHzJ-18">
          <mxGeometry relative="1" as="geometry" />
        </mxCell>
        <mxCell id="hwUipfqgp1SF-haNEHzJ-46" value="" style="rounded=0;orthogonalLoop=1;jettySize=auto;html=1;exitX=0.5;exitY=1;exitDx=0;exitDy=0;exitPerimeter=0;entryX=0.5;entryY=0;entryDx=0;entryDy=0;entryPerimeter=0;" edge="1" parent="1" source="hwUipfqgp1SF-haNEHzJ-6" target="hwUipfqgp1SF-haNEHzJ-7">
          <mxGeometry relative="1" as="geometry">
            <mxPoint x="290" y="820" as="sourcePoint" />
            <mxPoint x="290" y="850" as="targetPoint" />
          </mxGeometry>
        </mxCell>
        <mxCell id="hwUipfqgp1SF-haNEHzJ-6" value="&lt;b&gt;&lt;font style=&quot;font-size: 18px;&quot;&gt;&amp;nbsp;Only SW5 toggles on&lt;/font&gt;&lt;/b&gt;" style="strokeWidth=2;html=1;shape=mxgraph.flowchart.decision;whiteSpace=wrap;" vertex="1" parent="1">
          <mxGeometry x="190" y="716" width="160" height="100" as="geometry" />
        </mxCell>
        <mxCell id="hwUipfqgp1SF-haNEHzJ-33" value="" style="edgeStyle=orthogonalEdgeStyle;rounded=0;orthogonalLoop=1;jettySize=auto;html=1;exitX=1;exitY=0.5;exitDx=0;exitDy=0;exitPerimeter=0;entryX=0;entryY=0.5;entryDx=0;entryDy=0;" edge="1" parent="1" source="hwUipfqgp1SF-haNEHzJ-7" target="hwUipfqgp1SF-haNEHzJ-19">
          <mxGeometry relative="1" as="geometry" />
        </mxCell>
        <mxCell id="hwUipfqgp1SF-haNEHzJ-47" value="" style="rounded=0;orthogonalLoop=1;jettySize=auto;html=1;exitX=0.5;exitY=1;exitDx=0;exitDy=0;exitPerimeter=0;entryX=0.5;entryY=0;entryDx=0;entryDy=0;entryPerimeter=0;" edge="1" parent="1" source="hwUipfqgp1SF-haNEHzJ-7" target="hwUipfqgp1SF-haNEHzJ-8">
          <mxGeometry relative="1" as="geometry">
            <mxPoint x="300" y="960" as="sourcePoint" />
            <mxPoint x="330" y="960" as="targetPoint" />
          </mxGeometry>
        </mxCell>
        <mxCell id="hwUipfqgp1SF-haNEHzJ-7" value="&lt;b&gt;&lt;font style=&quot;font-size: 18px;&quot;&gt;&amp;nbsp;Only SW6 toggles on&lt;/font&gt;&lt;/b&gt;" style="strokeWidth=2;html=1;shape=mxgraph.flowchart.decision;whiteSpace=wrap;" vertex="1" parent="1">
          <mxGeometry x="190" y="846" width="160" height="100" as="geometry" />
        </mxCell>
        <mxCell id="hwUipfqgp1SF-haNEHzJ-34" value="" style="edgeStyle=orthogonalEdgeStyle;rounded=0;orthogonalLoop=1;jettySize=auto;html=1;exitX=1;exitY=0.5;exitDx=0;exitDy=0;exitPerimeter=0;entryX=0;entryY=0.5;entryDx=0;entryDy=0;" edge="1" parent="1" source="hwUipfqgp1SF-haNEHzJ-8" target="hwUipfqgp1SF-haNEHzJ-20">
          <mxGeometry relative="1" as="geometry" />
        </mxCell>
        <mxCell id="hwUipfqgp1SF-haNEHzJ-8" value="&lt;b&gt;&lt;font style=&quot;font-size: 18px;&quot;&gt;&amp;nbsp;Only SW7 toggles on&lt;/font&gt;&lt;/b&gt;" style="strokeWidth=2;html=1;shape=mxgraph.flowchart.decision;whiteSpace=wrap;" vertex="1" parent="1">
          <mxGeometry x="190" y="978" width="160" height="100" as="geometry" />
        </mxCell>
        <mxCell id="hwUipfqgp1SF-haNEHzJ-13" value="&lt;font style=&quot;font-size: 18px;&quot;&gt;&lt;b&gt;LED1 turns on&lt;/b&gt;&lt;/font&gt;" style="rounded=1;whiteSpace=wrap;html=1;absoluteArcSize=1;arcSize=14;strokeWidth=2;" vertex="1" parent="1">
          <mxGeometry x="450" y="69" width="140" height="74" as="geometry" />
        </mxCell>
        <mxCell id="hwUipfqgp1SF-haNEHzJ-14" value="&lt;font style=&quot;font-size: 18px;&quot;&gt;&lt;b&gt;LED2 turns on&lt;/b&gt;&lt;/font&gt;" style="rounded=1;whiteSpace=wrap;html=1;absoluteArcSize=1;arcSize=14;strokeWidth=2;" vertex="1" parent="1">
          <mxGeometry x="450" y="200" width="140" height="74" as="geometry" />
        </mxCell>
        <mxCell id="hwUipfqgp1SF-haNEHzJ-15" value="&lt;font style=&quot;font-size: 18px;&quot;&gt;&lt;b&gt;LED3 turns on&lt;/b&gt;&lt;/font&gt;" style="rounded=1;whiteSpace=wrap;html=1;absoluteArcSize=1;arcSize=14;strokeWidth=2;" vertex="1" parent="1">
          <mxGeometry x="450" y="329" width="140" height="74" as="geometry" />
        </mxCell>
        <mxCell id="hwUipfqgp1SF-haNEHzJ-16" value="&lt;font style=&quot;font-size: 18px;&quot;&gt;&lt;b&gt;LED4 turns on&lt;/b&gt;&lt;/font&gt;" style="rounded=1;whiteSpace=wrap;html=1;absoluteArcSize=1;arcSize=14;strokeWidth=2;" vertex="1" parent="1">
          <mxGeometry x="450" y="459" width="140" height="74" as="geometry" />
        </mxCell>
        <mxCell id="hwUipfqgp1SF-haNEHzJ-17" value="&lt;font style=&quot;font-size: 18px;&quot;&gt;&lt;b&gt;LED5 turns on&lt;/b&gt;&lt;/font&gt;" style="rounded=1;whiteSpace=wrap;html=1;absoluteArcSize=1;arcSize=14;strokeWidth=2;" vertex="1" parent="1">
          <mxGeometry x="450" y="596" width="140" height="74" as="geometry" />
        </mxCell>
        <mxCell id="hwUipfqgp1SF-haNEHzJ-18" value="&lt;font style=&quot;font-size: 18px;&quot;&gt;&lt;b&gt;LED6 turns on&lt;/b&gt;&lt;/font&gt;" style="rounded=1;whiteSpace=wrap;html=1;absoluteArcSize=1;arcSize=14;strokeWidth=2;" vertex="1" parent="1">
          <mxGeometry x="450" y="729" width="140" height="74" as="geometry" />
        </mxCell>
        <mxCell id="hwUipfqgp1SF-haNEHzJ-19" value="&lt;font style=&quot;font-size: 18px;&quot;&gt;&lt;b&gt;LED7 turns on&lt;/b&gt;&lt;/font&gt;" style="rounded=1;whiteSpace=wrap;html=1;absoluteArcSize=1;arcSize=14;strokeWidth=2;" vertex="1" parent="1">
          <mxGeometry x="450" y="859" width="140" height="74" as="geometry" />
        </mxCell>
        <mxCell id="hwUipfqgp1SF-haNEHzJ-20" value="&lt;font style=&quot;font-size: 18px;&quot;&gt;&lt;b&gt;all LEDS turns on&lt;/b&gt;&lt;/font&gt;" style="rounded=1;whiteSpace=wrap;html=1;absoluteArcSize=1;arcSize=14;strokeWidth=2;" vertex="1" parent="1">
          <mxGeometry x="450" y="991" width="140" height="74" as="geometry" />
        </mxCell>
        <mxCell id="hwUipfqgp1SF-haNEHzJ-21" value="&lt;font style=&quot;font-size: 18px;&quot;&gt;&lt;b&gt;all LEDS turns off&lt;/b&gt;&lt;/font&gt;" style="rounded=1;whiteSpace=wrap;html=1;absoluteArcSize=1;arcSize=14;strokeWidth=2;" vertex="1" parent="1">
          <mxGeometry x="400" y="1118" width="140" height="74" as="geometry" />
        </mxCell>
        <mxCell id="hwUipfqgp1SF-haNEHzJ-23" value="&lt;b&gt;&lt;font style=&quot;font-size: 18px;&quot;&gt;Start&lt;/font&gt;&lt;/b&gt;" style="strokeWidth=2;html=1;shape=mxgraph.flowchart.start_1;whiteSpace=wrap;" vertex="1" parent="1">
          <mxGeometry x="410" y="-40" width="100" height="60" as="geometry" />
        </mxCell>
        <mxCell id="hwUipfqgp1SF-haNEHzJ-24" value="" style="endArrow=classic;html=1;rounded=0;entryX=0.5;entryY=0;entryDx=0;entryDy=0;entryPerimeter=0;exitX=0;exitY=0.5;exitDx=0;exitDy=0;exitPerimeter=0;edgeStyle=orthogonalEdgeStyle;" edge="1" parent="1" source="hwUipfqgp1SF-haNEHzJ-23" target="hwUipfqgp1SF-haNEHzJ-1">
          <mxGeometry width="50" height="50" relative="1" as="geometry">
            <mxPoint x="430" y="180" as="sourcePoint" />
            <mxPoint x="480" y="130" as="targetPoint" />
          </mxGeometry>
        </mxCell>
        <mxCell id="hwUipfqgp1SF-haNEHzJ-35" value="" style="endArrow=classic;html=1;rounded=0;entryX=1;entryY=0.5;entryDx=0;entryDy=0;entryPerimeter=0;exitX=1;exitY=0.5;exitDx=0;exitDy=0;edgeStyle=orthogonalEdgeStyle;" edge="1" parent="1" source="hwUipfqgp1SF-haNEHzJ-13" target="hwUipfqgp1SF-haNEHzJ-23">
          <mxGeometry width="50" height="50" relative="1" as="geometry">
            <mxPoint x="430" y="130" as="sourcePoint" />
            <mxPoint x="480" y="80" as="targetPoint" />
            <Array as="points">
              <mxPoint x="670" y="106" />
              <mxPoint x="670" y="-10" />
            </Array>
          </mxGeometry>
        </mxCell>
        <mxCell id="hwUipfqgp1SF-haNEHzJ-36" value="" style="endArrow=classic;html=1;rounded=0;exitX=1;exitY=0.5;exitDx=0;exitDy=0;edgeStyle=orthogonalEdgeStyle;" edge="1" parent="1" source="hwUipfqgp1SF-haNEHzJ-14">
          <mxGeometry width="50" height="50" relative="1" as="geometry">
            <mxPoint x="590" y="232.00000000000023" as="sourcePoint" />
            <mxPoint x="670" y="105" as="targetPoint" />
          </mxGeometry>
        </mxCell>
        <mxCell id="hwUipfqgp1SF-haNEHzJ-51" value="&lt;b style=&quot;forced-color-adjust: none; color: rgb(0, 0, 0); font-family: Helvetica; font-size: 18px; font-style: normal; font-variant-ligatures: normal; font-variant-caps: normal; letter-spacing: normal; orphans: 2; text-align: center; text-indent: 0px; text-transform: none; widows: 2; word-spacing: 0px; -webkit-text-stroke-width: 0px; white-space: nowrap; background-color: rgb(255, 255, 255); text-decoration-thickness: initial; text-decoration-style: initial; text-decoration-color: initial;&quot;&gt;No&lt;/b&gt;" style="text;whiteSpace=wrap;html=1;" vertex="1" parent="1">
          <mxGeometry x="280" y="546" width="30" height="30" as="geometry" />
        </mxCell>
        <mxCell id="hwUipfqgp1SF-haNEHzJ-52" value="&lt;b style=&quot;forced-color-adjust: none; color: rgb(0, 0, 0); font-family: Helvetica; font-size: 18px; font-style: normal; font-variant-ligatures: normal; font-variant-caps: normal; letter-spacing: normal; orphans: 2; text-align: center; text-indent: 0px; text-transform: none; widows: 2; word-spacing: 0px; -webkit-text-stroke-width: 0px; white-space: nowrap; background-color: rgb(255, 255, 255); text-decoration-thickness: initial; text-decoration-style: initial; text-decoration-color: initial;&quot;&gt;No&lt;/b&gt;" style="text;whiteSpace=wrap;html=1;" vertex="1" parent="1">
          <mxGeometry x="280" y="416" width="30" height="30" as="geometry" />
        </mxCell>
        <mxCell id="hwUipfqgp1SF-haNEHzJ-53" value="&lt;b style=&quot;forced-color-adjust: none; color: rgb(0, 0, 0); font-family: Helvetica; font-size: 18px; font-style: normal; font-variant-ligatures: normal; font-variant-caps: normal; letter-spacing: normal; orphans: 2; text-align: center; text-indent: 0px; text-transform: none; widows: 2; word-spacing: 0px; -webkit-text-stroke-width: 0px; white-space: nowrap; background-color: rgb(255, 255, 255); text-decoration-thickness: initial; text-decoration-style: initial; text-decoration-color: initial;&quot;&gt;No&lt;/b&gt;" style="text;whiteSpace=wrap;html=1;" vertex="1" parent="1">
          <mxGeometry x="280" y="286" width="30" height="30" as="geometry" />
        </mxCell>
        <mxCell id="hwUipfqgp1SF-haNEHzJ-54" value="&lt;b style=&quot;forced-color-adjust: none; color: rgb(0, 0, 0); font-family: Helvetica; font-size: 18px; font-style: normal; font-variant-ligatures: normal; font-variant-caps: normal; letter-spacing: normal; orphans: 2; text-align: center; text-indent: 0px; text-transform: none; widows: 2; word-spacing: 0px; -webkit-text-stroke-width: 0px; white-space: nowrap; background-color: rgb(255, 255, 255); text-decoration-thickness: initial; text-decoration-style: initial; text-decoration-color: initial;&quot;&gt;No&lt;/b&gt;" style="text;whiteSpace=wrap;html=1;" vertex="1" parent="1">
          <mxGeometry x="280" y="156" width="30" height="30" as="geometry" />
        </mxCell>
        <mxCell id="hwUipfqgp1SF-haNEHzJ-55" value="&lt;b style=&quot;forced-color-adjust: none; color: rgb(0, 0, 0); font-family: Helvetica; font-size: 18px; font-style: normal; font-variant-ligatures: normal; font-variant-caps: normal; letter-spacing: normal; orphans: 2; text-align: center; text-indent: 0px; text-transform: none; widows: 2; word-spacing: 0px; -webkit-text-stroke-width: 0px; white-space: nowrap; background-color: rgb(255, 255, 255); text-decoration-thickness: initial; text-decoration-style: initial; text-decoration-color: initial;&quot;&gt;No&lt;/b&gt;" style="text;whiteSpace=wrap;html=1;" vertex="1" parent="1">
          <mxGeometry x="280" y="812" width="30" height="34" as="geometry" />
        </mxCell>
        <mxCell id="hwUipfqgp1SF-haNEHzJ-56" value="&lt;b style=&quot;forced-color-adjust: none; color: rgb(0, 0, 0); font-family: Helvetica; font-size: 18px; font-style: normal; font-variant-ligatures: normal; font-variant-caps: normal; letter-spacing: normal; orphans: 2; text-align: center; text-indent: 0px; text-transform: none; widows: 2; word-spacing: 0px; -webkit-text-stroke-width: 0px; white-space: nowrap; background-color: rgb(255, 255, 255); text-decoration-thickness: initial; text-decoration-style: initial; text-decoration-color: initial;&quot;&gt;No&lt;/b&gt;" style="text;whiteSpace=wrap;html=1;" vertex="1" parent="1">
          <mxGeometry x="280" y="946" width="30" height="34" as="geometry" />
        </mxCell>
        <mxCell id="hwUipfqgp1SF-haNEHzJ-58" value="&lt;b&gt;&lt;font style=&quot;font-size: 18px;&quot;&gt;Yes&lt;/font&gt;&lt;/b&gt;" style="edgeLabel;html=1;align=center;verticalAlign=middle;resizable=0;points=[];" vertex="1" connectable="0" parent="1">
          <mxGeometry x="420" y="129.99999999999977" as="geometry">
            <mxPoint x="-19" y="90" as="offset" />
          </mxGeometry>
        </mxCell>
        <mxCell id="hwUipfqgp1SF-haNEHzJ-60" value="&lt;b&gt;&lt;font style=&quot;font-size: 18px;&quot;&gt;Yes&lt;/font&gt;&lt;/b&gt;" style="edgeLabel;html=1;align=center;verticalAlign=middle;resizable=0;points=[];" vertex="1" connectable="0" parent="1">
          <mxGeometry x="430" y="129.99999999999977" as="geometry">
            <mxPoint x="-33" y="218" as="offset" />
          </mxGeometry>
        </mxCell>
        <mxCell id="hwUipfqgp1SF-haNEHzJ-61" value="&lt;b&gt;&lt;font style=&quot;font-size: 18px;&quot;&gt;Yes&lt;/font&gt;&lt;/b&gt;" style="edgeLabel;html=1;align=center;verticalAlign=middle;resizable=0;points=[];" vertex="1" connectable="0" parent="1">
          <mxGeometry x="440" y="170.99999999999977" as="geometry">
            <mxPoint x="-46" y="307" as="offset" />
          </mxGeometry>
        </mxCell>
        <mxCell id="hwUipfqgp1SF-haNEHzJ-62" value="&lt;b&gt;&lt;font style=&quot;font-size: 18px;&quot;&gt;Yes&lt;/font&gt;&lt;/b&gt;" style="edgeLabel;html=1;align=center;verticalAlign=middle;resizable=0;points=[];" vertex="1" connectable="0" parent="1">
          <mxGeometry x="470" y="349.9999999999998" as="geometry">
            <mxPoint x="-75" y="268" as="offset" />
          </mxGeometry>
        </mxCell>
        <mxCell id="hwUipfqgp1SF-haNEHzJ-64" value="&lt;b&gt;&lt;font style=&quot;font-size: 18px;&quot;&gt;Yes&lt;/font&gt;&lt;/b&gt;" style="text;html=1;align=center;verticalAlign=middle;whiteSpace=wrap;rounded=0;" vertex="1" parent="1">
          <mxGeometry x="365" y="729" width="60" height="30" as="geometry" />
        </mxCell>
        <mxCell id="hwUipfqgp1SF-haNEHzJ-66" value="&lt;b style=&quot;forced-color-adjust: none; color: rgb(0, 0, 0); font-family: Helvetica; font-size: 12px; font-style: normal; font-variant-ligatures: normal; font-variant-caps: normal; letter-spacing: normal; orphans: 2; text-align: center; text-indent: 0px; text-transform: none; widows: 2; word-spacing: 0px; -webkit-text-stroke-width: 0px; white-space: normal; background-color: rgb(251, 251, 251); text-decoration-thickness: initial; text-decoration-style: initial; text-decoration-color: initial;&quot;&gt;&lt;font style=&quot;forced-color-adjust: none; font-size: 18px;&quot;&gt;Yes&lt;/font&gt;&lt;/b&gt;" style="text;whiteSpace=wrap;html=1;" vertex="1" parent="1">
          <mxGeometry x="380" y="859" width="50" height="31" as="geometry" />
        </mxCell>
        <mxCell id="hwUipfqgp1SF-haNEHzJ-67" value="&lt;b style=&quot;forced-color-adjust: none; color: rgb(0, 0, 0); font-family: Helvetica; font-size: 12px; font-style: normal; font-variant-ligatures: normal; font-variant-caps: normal; letter-spacing: normal; orphans: 2; text-align: center; text-indent: 0px; text-transform: none; widows: 2; word-spacing: 0px; -webkit-text-stroke-width: 0px; white-space: normal; background-color: rgb(251, 251, 251); text-decoration-thickness: initial; text-decoration-style: initial; text-decoration-color: initial;&quot;&gt;&lt;font style=&quot;forced-color-adjust: none; font-size: 18px;&quot;&gt;Yes&lt;/font&gt;&lt;/b&gt;" style="text;whiteSpace=wrap;html=1;" vertex="1" parent="1">
          <mxGeometry x="380" y="991" width="40" height="30" as="geometry" />
        </mxCell>
        <mxCell id="hwUipfqgp1SF-haNEHzJ-68" value="" style="endArrow=classic;html=1;rounded=0;exitX=0.5;exitY=1;exitDx=0;exitDy=0;exitPerimeter=0;entryX=0;entryY=0.5;entryDx=0;entryDy=0;edgeStyle=orthogonalEdgeStyle;" edge="1" parent="1" source="hwUipfqgp1SF-haNEHzJ-8" target="hwUipfqgp1SF-haNEHzJ-21">
          <mxGeometry width="50" height="50" relative="1" as="geometry">
            <mxPoint x="430" y="1070" as="sourcePoint" />
            <mxPoint x="480" y="1020" as="targetPoint" />
          </mxGeometry>
        </mxCell>
        <mxCell id="hwUipfqgp1SF-haNEHzJ-69" value="&lt;b&gt;&lt;font style=&quot;font-size: 18px;&quot;&gt;No&lt;/font&gt;&lt;/b&gt;" style="text;html=1;align=center;verticalAlign=middle;whiteSpace=wrap;rounded=0;" vertex="1" parent="1">
          <mxGeometry x="260" y="1100" width="60" height="30" as="geometry" />
        </mxCell>
        <mxCell id="hwUipfqgp1SF-haNEHzJ-70" value="" style="endArrow=classic;html=1;rounded=0;exitX=1;exitY=0.5;exitDx=0;exitDy=0;edgeStyle=elbowEdgeStyle;" edge="1" parent="1" source="hwUipfqgp1SF-haNEHzJ-15">
          <mxGeometry width="50" height="50" relative="1" as="geometry">
            <mxPoint x="670" y="390" as="sourcePoint" />
            <mxPoint x="670" y="240" as="targetPoint" />
            <Array as="points">
              <mxPoint x="670" y="310" />
            </Array>
          </mxGeometry>
        </mxCell>
        <mxCell id="hwUipfqgp1SF-haNEHzJ-71" value="" style="endArrow=classic;html=1;rounded=0;exitX=1;exitY=0.5;exitDx=0;exitDy=0;edgeStyle=elbowEdgeStyle;" edge="1" parent="1" source="hwUipfqgp1SF-haNEHzJ-16">
          <mxGeometry width="50" height="50" relative="1" as="geometry">
            <mxPoint x="430" y="450" as="sourcePoint" />
            <mxPoint x="670" y="370" as="targetPoint" />
            <Array as="points">
              <mxPoint x="670" y="450" />
            </Array>
          </mxGeometry>
        </mxCell>
        <mxCell id="hwUipfqgp1SF-haNEHzJ-72" value="" style="endArrow=classic;html=1;rounded=0;exitX=1;exitY=0.5;exitDx=0;exitDy=0;edgeStyle=orthogonalEdgeStyle;" edge="1" parent="1" source="hwUipfqgp1SF-haNEHzJ-17">
          <mxGeometry width="50" height="50" relative="1" as="geometry">
            <mxPoint x="430" y="650" as="sourcePoint" />
            <mxPoint x="670" y="500" as="targetPoint" />
          </mxGeometry>
        </mxCell>
        <mxCell id="hwUipfqgp1SF-haNEHzJ-73" value="" style="endArrow=classic;html=1;rounded=0;exitX=1;exitY=0.5;exitDx=0;exitDy=0;edgeStyle=orthogonalEdgeStyle;" edge="1" parent="1" source="hwUipfqgp1SF-haNEHzJ-18">
          <mxGeometry width="50" height="50" relative="1" as="geometry">
            <mxPoint x="430" y="700" as="sourcePoint" />
            <mxPoint x="670" y="640" as="targetPoint" />
          </mxGeometry>
        </mxCell>
        <mxCell id="hwUipfqgp1SF-haNEHzJ-74" value="" style="endArrow=classic;html=1;rounded=0;exitX=1;exitY=0.5;exitDx=0;exitDy=0;edgeStyle=orthogonalEdgeStyle;" edge="1" parent="1" source="hwUipfqgp1SF-haNEHzJ-19">
          <mxGeometry width="50" height="50" relative="1" as="geometry">
            <mxPoint x="430" y="900" as="sourcePoint" />
            <mxPoint x="670" y="770" as="targetPoint" />
          </mxGeometry>
        </mxCell>
        <mxCell id="hwUipfqgp1SF-haNEHzJ-76" value="" style="endArrow=classic;html=1;rounded=0;exitX=1;exitY=0.5;exitDx=0;exitDy=0;edgeStyle=orthogonalEdgeStyle;" edge="1" parent="1" source="hwUipfqgp1SF-haNEHzJ-20">
          <mxGeometry width="50" height="50" relative="1" as="geometry">
            <mxPoint x="430" y="900" as="sourcePoint" />
            <mxPoint x="670" y="900" as="targetPoint" />
          </mxGeometry>
        </mxCell>
        <mxCell id="hwUipfqgp1SF-haNEHzJ-77" value="" style="endArrow=classic;html=1;rounded=0;exitX=1;exitY=0.5;exitDx=0;exitDy=0;edgeStyle=orthogonalEdgeStyle;" edge="1" parent="1" source="hwUipfqgp1SF-haNEHzJ-21">
          <mxGeometry width="50" height="50" relative="1" as="geometry">
            <mxPoint x="430" y="1080" as="sourcePoint" />
            <mxPoint x="670" y="1030" as="targetPoint" />
          </mxGeometry>
        </mxCell>
      </root>
    </mxGraphModel>
  </diagram>
</mxfile>
